<svg xmlns:xlink="http://www.w3.org/1999/xlink" aria-labelledby="title" version="1.2" xmlns="http://www.w3.org/2000/svg" viewBox="0 0 1132 512" width="884.375" height="400">
            <title id="title">Université de Rennes 1</title>
            <path d="m264.5 282.9l78.1 78.1-13.1 13-78.1-78.1z"></path>
            <path d="m290.5 256.9l78.1 78.1-13 13-78.1-78.1z"></path>
            <path d="m147.3 165.8l78.1 78.1-13 13-78.1-78.1z"></path>
            <path d="m173.3 139.7l78.1 78.1-13 13.1-78.1-78.1z"></path>
            <path d="m342.6 152.8l-78.1 78-13.1-13 78.1-78.1z"></path>
            <path d="m368.6 178.8l-78.1 78.1-13-13 78.1-78.1z"></path>
            <path d="m225.4 269.9l-78.1 78.1-13-13 78.1-78.1z"></path>
            <path d="m251.4 295.9l-78.1 78.1-13-13 78.1-78.1z"></path>
            <path d="m223.8 118.8h18.4v55.2h-18.4z"></path>
            <path d="m260.6 118.8h18.5v55.2h-18.5z"></path>
            <path d="m223.8 339.7h18.4v55.2h-18.4z"></path>
            <path d="m260.6 339.7h18.5v55.2h-18.5z"></path>
            <path d="m389.5 247.7h-55.2v-18.4h55.2z"></path>
            <path d="m389.5 284.5h-55.2v-18.4h55.2z"></path>
            <path d="m113.4 229.3h55.2v18.4h-55.2z"></path>
            <path d="m113.4 266.1h55.2v18.4h-55.2z"></path>
            <path fill-rule="evenodd" d="m981.3 337.1c2.4 4.7 7.2 8.4 13.7 8.4 5.3 0 8.8-1.9 8.8-5.4 0-3-1.5-4.1-11.1-6.4l-1.6-0.4c-14.4-3.3-22.2-8.7-22.2-20 0-10.1 8.6-19.5 24.9-19.5 14 0 23.4 5.5 26.7 16.3l-7.2 2.9-7.2 2.6c-1.5-4.8-6.1-8.4-12.5-8.4-5.8 0-9 2.6-9 5.3 0 3.3 2.4 4.7 11.6 6.7l1.1 0.3c16.4 3.6 22.5 9.5 22.5 20.1 0 10.6-9.2 19.5-24.5 19.5-14.5 0-23.5-6.6-28.4-16l7.4-3zm9-24.4c-0.3 0-0.2 0-0.2-0.2 0 0.1 0 0.2 0.2 0.2zm-32.1 19h-44.4c1.7 7.9 7.5 12.6 15.5 12.6 6.8 0 11.4-2.7 15.6-8l12.2 8.8c-7 8.7-14.9 14-28.8 14-19.4 0-31.1-14.6-31.1-32.9 0-17.6 11.7-32.4 31.1-32.4 18.6 0 30.3 13.4 30.3 31 0 2.2 0 4.5-0.4 6.9zm-16-11.4c-1.5-7.5-7-11.3-13.4-11.3-7.7 0-13 4.1-14.8 11.3zm-115.1-25.1h16.5v2.4c3.9-2.5 8.6-3.7 13.6-3.7 18.8 0 28.5 12.2 28.5 28.4v35.4h-16.2v-35.4c0-7.3-4.8-13.1-12.9-13.1-7.9 0-11.6 4.8-13 7.1v41.4h-16.5zm-73.1 0h16.6v2.4c3.8-2.5 8.6-3.6 13.6-3.6 18.7 0 28.5 12.1 28.5 28.4v35.4h-16.3v-35.4c0-7.4-4.7-13.2-12.8-13.2-7.9 0-11.7 4.8-13 7.2v41.4h-16.6zm-12.5 36.5h-44.4c1.8 7.8 7.6 12.6 15.6 12.6 6.7 0 11.3-2.8 15.6-8l12.1 8.7c-7 8.8-14.9 14.1-28.7 14.1-19.4 0-31.2-14.7-31.2-32.9 0-17.7 11.8-32.4 31.2-32.4 18.6 0 30.2 13.4 30.2 31 0 2.1 0 4.5-0.4 6.9zm-16-11.4c-1.5-7.5-7-11.4-13.3-11.4-7.8 0-13.1 4.1-14.8 11.4zm-107.5-46.2h27c13.5 0 26.9 10.5 26.9 26.3v0.1c0 9.3-4.9 18.9-14.2 23.7l16 33.5h-17.2l-14.4-30.7h-7.6v30.7h-16.5zm24.3 37.2c8 0 13.2-3.5 13.3-10.8-0.1-6.5-5.4-10.8-13.3-10.8h-7.8v21.6z"></path>
            <path fill-rule="evenodd" d="m992.8 137h17.8l-12.5 20.7h-16.5zm27.2 65.9h-44.4c1.8 7.9 7.6 12.6 15.6 12.6 6.7 0 11.3-2.7 15.6-8l12.1 8.8c-7 8.8-14.9 14-28.7 14-19.4 0-31.2-14.6-31.2-32.9 0-17.6 11.8-32.4 31.2-32.4 18.6 0 30.2 13.4 30.2 31 0 2.2 0 4.5-0.4 6.9zm-16-11.4c-1.5-7.5-7-11.3-13.3-11.3-7.8 0-13 4.1-14.8 11.3zm-83.5-10h-12.5v-15.1h12.5v-19h16v19h17.4v15.1h-17.4v47.4h-16zm-39.3-44h16.5v17h-16.5zm0.2 28.9h16.1v62.5h-16.1zm-51.8 41.9c2.3 4.8 7.1 8.4 13.6 8.4 5.4 0 8.9-1.9 8.9-5.4 0-3-1.5-4.1-11.2-6.4l-1.6-0.3c-14.4-3.4-22.1-8.8-22.1-20 0-10.2 8.5-19.5 24.9-19.5 14 0 23.3 5.5 26.6 16.2l-7.1 2.9-7.3 2.6c-1.5-4.7-6.1-8.4-12.5-8.4-5.7 0-9 2.7-9 5.3 0 3.4 2.4 4.7 11.6 6.7l1.2 0.3c16.3 3.6 22.5 9.5 22.5 20.1 0 10.7-9.3 19.5-24.5 19.5-14.5 0-23.6-6.6-28.4-16l7.3-3zm9.1-24.4c-0.4 0-0.3 0-0.3-0.2 0 0.1 0 0.2 0.3 0.2zm-66.2-17.5h16.8v4.7l19.2-7.4v16.2l-19.2 7.5v41.6h-16.8zm-12.8 36.5h-44.4c1.8 7.9 7.5 12.6 15.6 12.6 6.7 0 11.3-2.7 15.6-8l12.1 8.8c-7 8.7-14.9 14-28.7 14-19.4 0-31.2-14.7-31.2-32.9 0-17.7 11.8-32.4 31.2-32.4 18.6 0 30.2 13.4 30.2 31 0 2.1 0 4.5-0.4 6.9zm-16-11.4c-1.5-7.5-7-11.4-13.3-11.4-7.8 0-13.1 4.1-14.8 11.4zm-90.8 37.4l-25.4-62.5h17.2l16.3 40.9 15.4-40.9h17.2l-23.6 62.5zm-51.4-91.4h16.6v17h-16.6zm0.3 28.9h16v62.5h-16zm-73.5 0h16.5v2.4c3.8-2.5 8.6-3.7 13.6-3.7 18.8 0 28.5 12.2 28.5 28.4v35.4h-16.2v-35.4c0-7.3-4.8-13.1-12.9-13.1-7.9 0-11.7 4.8-13 7.1v41.4h-16.5zm-67.1-21v50.4c0 11.3 6.4 18.1 17.4 18.1 11 0 17.5-6.8 17.5-18.1v-50.4h16.5v50.4c0 20.5-13.1 34.4-34 34.4-20.9 0-33.9-13.9-33.9-34.4v-50.4z"></path>
            <path fill-rule="evenodd" d="m579 331.7h-44.4c1.8 7.9 7.5 12.6 15.5 12.6 6.8 0 11.4-2.7 15.7-8l12.1 8.8c-7 8.7-14.9 14-28.8 14-19.3 0-31.1-14.6-31.1-32.9 0-17.6 11.8-32.4 31.1-32.4 18.7 0 30.3 13.4 30.3 31 0 2.2 0 4.5-0.4 6.9zm-16-11.4c-1.5-7.5-7-11.3-13.4-11.3-7.7 0-13 4.1-14.7 11.3zm-71.8 34.8c-5.1 3.1-10 4-14.5 4-19.3 0-32-13.6-32-32.6 0-19.3 14-32.7 32-32.7 5 0 9.8 1.1 14.5 3.1v-31.1h16.8v91.9h-16.8zm-12.9-11.2c5.9 0 9.7-2 12.9-5v-25.8c-3.7-2.4-8.2-4-12.6-4-9.5 0-17.4 6.3-17.4 17.4 0 11.1 8 17.4 17.1 17.4z"></path>
          </svg>